<svg xmlns="http://www.w3.org/2000/svg" xmlns:xlink="http://www.w3.org/1999/xlink" width="40" zoomAndPan="magnify" viewBox="0 0 30 30.000001" height="40" preserveAspectRatio="xMidYMid meet" version="1.0"><defs><g/><clipPath id="83ec2568ca"><path d="M 28 9 L 29.515625 9 L 29.515625 10 L 28 10 Z M 28 9 " clip-rule="nonzero"/></clipPath><clipPath id="1d2e117043"><path d="M 26 7.09375 L 28 7.09375 L 28 9 L 26 9 Z M 26 7.09375 " clip-rule="nonzero"/></clipPath><clipPath id="d5b7b4b00e"><path d="M 0.484375 7.09375 L 14 7.09375 L 14 21.609375 L 0.484375 21.609375 Z M 0.484375 7.09375 " clip-rule="nonzero"/></clipPath></defs><path fill="#25bf6a" d="M 8.824219 15.273438 L 8.4375 19.519531 C 8.476562 19.738281 8.667969 19.890625 8.890625 19.894531 L 24.746094 20.121094 L 25.710938 14.859375 Z M 8.824219 15.273438 " fill-opacity="1" fill-rule="nonzero"/><path fill="#21a65c" d="M 24.300781 19.578125 L 9.109375 19.894531 L 24.746094 20.121094 L 25.710938 14.859375 Z M 24.300781 19.578125 " fill-opacity="1" fill-rule="nonzero"/><g clip-path="url(#83ec2568ca)"><path fill="#080808" d="M 29.027344 9.332031 L 29.3125 9.296875 C 29.324219 9.296875 29.34375 9.304688 29.347656 9.316406 L 29.5 9.519531 C 29.515625 9.542969 29.5 9.574219 29.46875 9.582031 L 28.140625 9.667969 L 29.015625 9.335938 C 29.015625 9.332031 29.023438 9.332031 29.027344 9.332031 Z M 29.027344 9.332031 " fill-opacity="1" fill-rule="nonzero"/></g><path fill="#080808" d="M 28.03125 8.328125 L 28.210938 8.101562 C 28.214844 8.089844 28.226562 8.089844 28.238281 8.089844 L 28.511719 8.132812 C 28.535156 8.140625 28.546875 8.167969 28.53125 8.183594 L 27.554688 9.230469 Z M 28.03125 8.328125 " fill-opacity="1" fill-rule="nonzero"/><g clip-path="url(#1d2e117043)"><path fill="#080808" d="M 27.148438 7.71875 L 27.160156 7.441406 C 27.160156 7.425781 27.15625 7.414062 27.136719 7.402344 L 26.929688 7.277344 C 26.898438 7.261719 26.859375 7.28125 26.863281 7.316406 L 26.96875 8.527344 L 27.144531 7.71875 C 27.148438 7.726562 27.148438 7.71875 27.148438 7.71875 Z M 27.148438 7.71875 " fill-opacity="1" fill-rule="nonzero"/></g><path fill="#212121" d="M 26.988281 9.609375 L 11.023438 10.851562 L 8.832031 15.273438 L 26.15625 14.847656 C 26.285156 14.84375 26.390625 14.757812 26.414062 14.640625 L 27.277344 9.917969 C 27.292969 9.746094 27.15625 9.597656 26.988281 9.609375 Z M 26.988281 9.609375 " fill-opacity="1" fill-rule="nonzero"/><path fill="#080808" d="M 18.675781 9.65625 C 18.609375 9.65625 18.566406 9.609375 18.558594 9.546875 C 18.554688 9.484375 18.605469 9.429688 18.667969 9.421875 L 21.753906 9.179688 C 21.820312 9.171875 21.875 9.222656 21.882812 9.285156 C 21.886719 9.347656 21.835938 9.40625 21.773438 9.410156 L 18.6875 9.65625 C 18.6875 9.65625 18.679688 9.65625 18.675781 9.65625 Z M 18.675781 9.65625 " fill-opacity="1" fill-rule="nonzero"/><path fill="#080808" d="M 24.382812 20.878906 C 24.320312 20.878906 24.261719 20.820312 24.265625 20.757812 C 24.265625 20.695312 24.324219 20.640625 24.386719 20.644531 L 25.125 20.65625 L 25.257812 19.917969 C 25.269531 19.855469 25.332031 19.8125 25.398438 19.820312 C 25.460938 19.832031 25.507812 19.894531 25.496094 19.957031 L 25.320312 20.894531 Z M 24.382812 20.878906 " fill-opacity="1" fill-rule="nonzero"/><path fill="#080808" d="M 16.714844 20.652344 C 16.648438 20.652344 16.59375 20.59375 16.597656 20.53125 C 16.597656 20.46875 16.65625 20.414062 16.71875 20.417969 L 19.566406 20.457031 C 19.632812 20.457031 19.691406 20.515625 19.683594 20.578125 C 19.683594 20.640625 19.625 20.695312 19.5625 20.691406 Z M 16.714844 20.652344 " fill-opacity="1" fill-rule="nonzero"/><path fill="#ffffff" d="M 16.132812 13.941406 L 16.058594 12.285156 L 15.640625 12.628906 L 15.339844 12.261719 L 16.070312 11.683594 L 16.570312 11.660156 L 16.671875 13.917969 Z M 16.132812 13.941406 " fill-opacity="1" fill-rule="nonzero"/><path fill="#ffffff" d="M 19.21875 12.667969 C 19.226562 12.828125 19.21875 12.980469 19.191406 13.128906 C 19.167969 13.277344 19.121094 13.40625 19.050781 13.515625 C 18.988281 13.628906 18.894531 13.71875 18.785156 13.789062 C 18.675781 13.855469 18.535156 13.894531 18.375 13.902344 C 18.210938 13.90625 18.070312 13.882812 17.949219 13.820312 C 17.832031 13.757812 17.734375 13.679688 17.652344 13.574219 C 17.578125 13.464844 17.515625 13.339844 17.480469 13.199219 C 17.4375 13.054688 17.414062 12.902344 17.410156 12.742188 C 17.40625 12.585938 17.410156 12.429688 17.4375 12.289062 C 17.460938 12.140625 17.515625 12.015625 17.578125 11.902344 C 17.648438 11.796875 17.734375 11.703125 17.851562 11.636719 C 17.960938 11.570312 18.101562 11.527344 18.261719 11.523438 C 18.425781 11.515625 18.566406 11.539062 18.679688 11.601562 C 18.796875 11.660156 18.894531 11.746094 18.96875 11.847656 C 19.046875 11.949219 19.105469 12.074219 19.144531 12.214844 C 19.183594 12.359375 19.207031 12.503906 19.21875 12.667969 Z M 18.65625 12.691406 C 18.652344 12.625 18.644531 12.542969 18.632812 12.460938 C 18.621094 12.375 18.597656 12.296875 18.574219 12.226562 C 18.546875 12.152344 18.511719 12.097656 18.464844 12.046875 C 18.417969 12 18.363281 11.976562 18.285156 11.976562 C 18.214844 11.984375 18.160156 12.003906 18.113281 12.0625 C 18.070312 12.113281 18.035156 12.175781 18.011719 12.25 C 17.992188 12.324219 17.980469 12.402344 17.972656 12.488281 C 17.96875 12.574219 17.96875 12.652344 17.972656 12.722656 C 17.980469 12.792969 17.984375 12.875 17.996094 12.960938 C 18.007812 13.042969 18.03125 13.125 18.058594 13.199219 C 18.089844 13.269531 18.125 13.328125 18.175781 13.378906 C 18.222656 13.425781 18.285156 13.449219 18.355469 13.449219 C 18.425781 13.441406 18.484375 13.417969 18.523438 13.363281 C 18.566406 13.3125 18.597656 13.25 18.617188 13.175781 C 18.640625 13.101562 18.652344 13.023438 18.65625 12.929688 C 18.664062 12.847656 18.664062 12.765625 18.65625 12.691406 Z M 18.65625 12.691406 " fill-opacity="1" fill-rule="nonzero"/><path fill="#ffffff" d="M 21.324219 12.574219 C 21.332031 12.730469 21.324219 12.886719 21.296875 13.03125 C 21.273438 13.179688 21.226562 13.3125 21.15625 13.417969 C 21.09375 13.53125 21 13.625 20.890625 13.691406 C 20.78125 13.757812 20.640625 13.800781 20.480469 13.804688 C 20.316406 13.8125 20.175781 13.789062 20.054688 13.726562 C 19.9375 13.664062 19.839844 13.582031 19.757812 13.476562 C 19.683594 13.367188 19.621094 13.242188 19.585938 13.101562 C 19.542969 12.960938 19.523438 12.804688 19.515625 12.648438 C 19.511719 12.488281 19.515625 12.335938 19.542969 12.191406 C 19.566406 12.046875 19.621094 11.921875 19.683594 11.808594 C 19.753906 11.699219 19.839844 11.609375 19.957031 11.539062 C 20.066406 11.472656 20.207031 11.433594 20.367188 11.425781 C 20.53125 11.421875 20.671875 11.445312 20.785156 11.507812 C 20.902344 11.5625 21 11.648438 21.078125 11.75 C 21.152344 11.851562 21.210938 11.976562 21.25 12.117188 C 21.289062 12.261719 21.3125 12.414062 21.324219 12.574219 Z M 20.761719 12.597656 C 20.757812 12.527344 20.75 12.449219 20.738281 12.363281 C 20.726562 12.277344 20.703125 12.199219 20.683594 12.128906 C 20.652344 12.058594 20.617188 12 20.570312 11.949219 C 20.523438 11.902344 20.46875 11.878906 20.390625 11.878906 C 20.320312 11.886719 20.265625 11.910156 20.21875 11.964844 C 20.175781 12.015625 20.140625 12.078125 20.117188 12.152344 C 20.097656 12.226562 20.085938 12.304688 20.078125 12.390625 C 20.074219 12.476562 20.074219 12.554688 20.078125 12.625 C 20.085938 12.699219 20.089844 12.777344 20.101562 12.863281 C 20.113281 12.949219 20.136719 13.027344 20.164062 13.101562 C 20.195312 13.175781 20.230469 13.230469 20.28125 13.28125 C 20.328125 13.328125 20.390625 13.351562 20.460938 13.351562 C 20.53125 13.34375 20.589844 13.324219 20.628906 13.265625 C 20.671875 13.214844 20.703125 13.152344 20.722656 13.078125 C 20.746094 13.003906 20.757812 12.925781 20.761719 12.835938 C 20.761719 12.75 20.769531 12.667969 20.761719 12.597656 Z M 20.761719 12.597656 " fill-opacity="1" fill-rule="nonzero"/><path fill="#ffffff" d="M 22.78125 11.949219 C 22.789062 12.035156 22.769531 12.109375 22.742188 12.1875 C 22.710938 12.261719 22.671875 12.328125 22.621094 12.386719 C 22.566406 12.441406 22.503906 12.488281 22.425781 12.523438 C 22.351562 12.554688 22.269531 12.578125 22.191406 12.578125 C 22.101562 12.585938 22.023438 12.566406 21.945312 12.539062 C 21.871094 12.511719 21.800781 12.472656 21.742188 12.421875 C 21.683594 12.367188 21.640625 12.304688 21.605469 12.234375 C 21.570312 12.160156 21.546875 12.085938 21.546875 12 C 21.539062 11.914062 21.550781 11.835938 21.585938 11.761719 C 21.617188 11.6875 21.65625 11.621094 21.707031 11.5625 C 21.761719 11.507812 21.824219 11.460938 21.898438 11.425781 C 21.976562 11.390625 22.054688 11.375 22.136719 11.371094 C 22.226562 11.363281 22.304688 11.375 22.382812 11.402344 C 22.457031 11.433594 22.527344 11.472656 22.585938 11.523438 C 22.640625 11.574219 22.6875 11.636719 22.722656 11.710938 C 22.757812 11.785156 22.777344 11.863281 22.78125 11.949219 Z M 22.417969 11.964844 C 22.410156 11.898438 22.386719 11.839844 22.335938 11.796875 C 22.28125 11.75 22.21875 11.726562 22.15625 11.726562 C 22.085938 11.734375 22.027344 11.753906 21.980469 11.808594 C 21.933594 11.859375 21.910156 11.921875 21.910156 11.984375 C 21.917969 12.050781 21.941406 12.109375 21.992188 12.152344 C 22.042969 12.199219 22.101562 12.222656 22.171875 12.214844 C 22.242188 12.210938 22.300781 12.1875 22.347656 12.136719 C 22.398438 12.089844 22.417969 12.035156 22.417969 11.964844 Z M 22.496094 13.765625 L 22.203125 13.640625 L 23.4375 11.25 L 23.746094 11.382812 Z M 24.398438 13.011719 C 24.40625 13.09375 24.386719 13.167969 24.359375 13.25 C 24.332031 13.324219 24.289062 13.390625 24.238281 13.449219 C 24.183594 13.503906 24.121094 13.550781 24.046875 13.582031 C 23.972656 13.617188 23.890625 13.640625 23.808594 13.640625 C 23.722656 13.644531 23.640625 13.628906 23.566406 13.601562 C 23.488281 13.574219 23.417969 13.53125 23.363281 13.480469 C 23.304688 13.429688 23.257812 13.367188 23.222656 13.292969 C 23.1875 13.21875 23.164062 13.148438 23.164062 13.0625 C 23.160156 12.976562 23.175781 12.902344 23.203125 12.824219 C 23.234375 12.75 23.273438 12.679688 23.328125 12.625 C 23.378906 12.566406 23.441406 12.523438 23.519531 12.488281 C 23.59375 12.453125 23.675781 12.429688 23.757812 12.429688 C 23.84375 12.425781 23.925781 12.441406 24 12.472656 C 24.074219 12.5 24.144531 12.539062 24.203125 12.589844 C 24.261719 12.640625 24.308594 12.703125 24.34375 12.777344 C 24.371094 12.847656 24.394531 12.925781 24.398438 13.011719 Z M 24.035156 13.027344 C 24.035156 12.992188 24.023438 12.960938 24.011719 12.929688 C 23.992188 12.902344 23.976562 12.875 23.953125 12.851562 C 23.929688 12.828125 23.902344 12.8125 23.871094 12.800781 C 23.84375 12.789062 23.808594 12.785156 23.773438 12.785156 C 23.703125 12.789062 23.644531 12.8125 23.597656 12.863281 C 23.554688 12.914062 23.53125 12.976562 23.53125 13.039062 C 23.535156 13.105469 23.558594 13.164062 23.609375 13.210938 C 23.664062 13.253906 23.722656 13.277344 23.789062 13.269531 C 23.824219 13.269531 23.859375 13.261719 23.890625 13.25 C 23.917969 13.238281 23.949219 13.214844 23.964844 13.191406 C 23.988281 13.167969 24.003906 13.140625 24.015625 13.113281 C 24.027344 13.089844 24.035156 13.0625 24.035156 13.027344 Z M 24.035156 13.027344 " fill-opacity="1" fill-rule="nonzero"/><path fill="#212121" d="M 15.59375 17.1875 C 15.558594 17.144531 15.507812 17.109375 15.449219 17.085938 C 15.390625 17.0625 15.332031 17.050781 15.28125 17.050781 C 15.253906 17.050781 15.222656 17.058594 15.199219 17.0625 C 15.171875 17.070312 15.148438 17.082031 15.125 17.089844 C 15.101562 17.101562 15.085938 17.125 15.066406 17.144531 C 15.050781 17.164062 15.042969 17.195312 15.042969 17.226562 C 15.042969 17.257812 15.050781 17.277344 15.0625 17.296875 C 15.074219 17.3125 15.089844 17.332031 15.113281 17.347656 C 15.136719 17.359375 15.164062 17.375 15.199219 17.382812 C 15.234375 17.394531 15.269531 17.402344 15.308594 17.414062 C 15.367188 17.433594 15.433594 17.449219 15.496094 17.472656 C 15.558594 17.496094 15.617188 17.523438 15.671875 17.558594 C 15.722656 17.589844 15.769531 17.640625 15.804688 17.695312 C 15.839844 17.75 15.855469 17.816406 15.863281 17.902344 C 15.863281 18 15.851562 18.085938 15.816406 18.152344 C 15.78125 18.226562 15.734375 18.285156 15.675781 18.328125 C 15.617188 18.375 15.546875 18.414062 15.46875 18.4375 C 15.386719 18.460938 15.304688 18.476562 15.222656 18.476562 C 15.101562 18.484375 14.980469 18.460938 14.863281 18.425781 C 14.746094 18.386719 14.648438 18.328125 14.574219 18.253906 L 14.835938 17.976562 C 14.875 18.027344 14.933594 18.066406 15.003906 18.101562 C 15.074219 18.136719 15.140625 18.148438 15.210938 18.148438 C 15.242188 18.148438 15.269531 18.140625 15.296875 18.136719 C 15.328125 18.128906 15.351562 18.121094 15.375 18.101562 C 15.398438 18.085938 15.414062 18.066406 15.425781 18.046875 C 15.4375 18.023438 15.445312 17.996094 15.445312 17.960938 C 15.445312 17.925781 15.433594 17.902344 15.414062 17.878906 C 15.398438 17.859375 15.375 17.839844 15.34375 17.824219 C 15.316406 17.808594 15.277344 17.789062 15.234375 17.777344 C 15.1875 17.765625 15.136719 17.75 15.085938 17.734375 C 15.027344 17.714844 14.972656 17.699219 14.921875 17.675781 C 14.871094 17.652344 14.824219 17.625 14.777344 17.589844 C 14.734375 17.558594 14.703125 17.511719 14.671875 17.460938 C 14.644531 17.410156 14.632812 17.339844 14.632812 17.269531 C 14.632812 17.175781 14.644531 17.089844 14.683594 17.027344 C 14.71875 16.960938 14.769531 16.90625 14.835938 16.859375 C 14.898438 16.8125 14.96875 16.78125 15.042969 16.757812 C 15.125 16.734375 15.199219 16.722656 15.28125 16.722656 C 15.378906 16.722656 15.480469 16.734375 15.578125 16.769531 C 15.679688 16.800781 15.769531 16.847656 15.851562 16.914062 Z M 15.59375 17.1875 " fill-opacity="1" fill-rule="nonzero"/><path fill="#212121" d="M 16.15625 18.414062 L 16.109375 16.734375 L 17.265625 16.699219 L 17.277344 17.039062 L 16.523438 17.0625 L 16.535156 17.382812 L 17.246094 17.363281 L 17.257812 17.6875 L 16.546875 17.703125 L 16.558594 18.050781 L 17.351562 18.027344 L 17.363281 18.375 Z M 16.15625 18.414062 " fill-opacity="1" fill-rule="nonzero"/><path fill="#212121" d="M 18.855469 18.3125 C 18.746094 18.363281 18.617188 18.390625 18.472656 18.398438 C 18.339844 18.402344 18.214844 18.378906 18.101562 18.339844 C 17.984375 18.300781 17.886719 18.242188 17.804688 18.164062 C 17.71875 18.089844 17.652344 17.996094 17.601562 17.886719 C 17.550781 17.777344 17.527344 17.660156 17.519531 17.527344 C 17.515625 17.394531 17.539062 17.273438 17.585938 17.160156 C 17.628906 17.050781 17.695312 16.957031 17.777344 16.875 C 17.855469 16.796875 17.957031 16.734375 18.066406 16.6875 C 18.175781 16.644531 18.296875 16.621094 18.429688 16.613281 C 18.554688 16.609375 18.675781 16.632812 18.789062 16.664062 C 18.90625 16.707031 19.003906 16.761719 19.082031 16.84375 L 18.808594 17.125 C 18.765625 17.074219 18.714844 17.035156 18.652344 17.011719 C 18.585938 16.988281 18.523438 16.976562 18.453125 16.976562 C 18.378906 16.976562 18.316406 16.996094 18.257812 17.023438 C 18.199219 17.050781 18.148438 17.085938 18.105469 17.136719 C 18.066406 17.183594 18.03125 17.238281 18.007812 17.300781 C 17.984375 17.363281 17.972656 17.433594 17.980469 17.507812 C 17.980469 17.578125 17.996094 17.652344 18.019531 17.714844 C 18.042969 17.777344 18.082031 17.828125 18.125 17.875 C 18.171875 17.921875 18.222656 17.953125 18.28125 17.976562 C 18.339844 18 18.40625 18.011719 18.476562 18.011719 C 18.558594 18.011719 18.632812 17.988281 18.691406 17.960938 C 18.75 17.925781 18.800781 17.886719 18.835938 17.835938 L 19.132812 18.089844 C 19.058594 18.1875 18.964844 18.261719 18.855469 18.3125 Z M 18.855469 18.3125 " fill-opacity="1" fill-rule="nonzero"/><path fill="#212121" d="M 20.703125 17.933594 C 20.671875 18.015625 20.625 18.089844 20.558594 18.148438 C 20.496094 18.210938 20.421875 18.253906 20.328125 18.296875 C 20.234375 18.328125 20.136719 18.351562 20.027344 18.351562 C 19.917969 18.359375 19.8125 18.339844 19.71875 18.3125 C 19.625 18.285156 19.550781 18.238281 19.488281 18.179688 C 19.421875 18.125 19.371094 18.058594 19.335938 17.972656 C 19.300781 17.890625 19.277344 17.796875 19.277344 17.699219 L 19.25 16.65625 L 19.660156 16.644531 L 19.691406 17.652344 C 19.691406 17.699219 19.695312 17.746094 19.714844 17.785156 C 19.726562 17.824219 19.746094 17.863281 19.769531 17.890625 C 19.792969 17.925781 19.828125 17.949219 19.875 17.964844 C 19.917969 17.984375 19.96875 17.996094 20.027344 17.988281 C 20.085938 17.988281 20.136719 17.976562 20.175781 17.953125 C 20.21875 17.933594 20.253906 17.910156 20.277344 17.875 C 20.300781 17.839844 20.316406 17.808594 20.328125 17.761719 C 20.339844 17.722656 20.34375 17.675781 20.339844 17.632812 L 20.308594 16.621094 L 20.722656 16.609375 L 20.75 17.652344 C 20.75 17.757812 20.738281 17.847656 20.703125 17.933594 Z M 20.703125 17.933594 " fill-opacity="1" fill-rule="nonzero"/><path fill="#212121" d="M 22.023438 18.253906 L 21.628906 17.597656 L 21.488281 17.601562 L 21.503906 18.265625 L 21.097656 18.277344 L 21.054688 16.597656 L 21.707031 16.582031 C 21.789062 16.582031 21.871094 16.585938 21.953125 16.597656 C 22.035156 16.613281 22.101562 16.636719 22.167969 16.675781 C 22.230469 16.71875 22.28125 16.769531 22.316406 16.832031 C 22.359375 16.894531 22.375 16.972656 22.382812 17.070312 C 22.386719 17.183594 22.359375 17.277344 22.292969 17.359375 C 22.234375 17.4375 22.148438 17.496094 22.039062 17.535156 L 22.507812 18.238281 Z M 21.96875 17.089844 C 21.96875 17.050781 21.957031 17.019531 21.941406 16.996094 C 21.921875 16.972656 21.898438 16.957031 21.871094 16.9375 C 21.84375 16.925781 21.8125 16.914062 21.777344 16.914062 C 21.742188 16.910156 21.714844 16.910156 21.679688 16.910156 L 21.460938 16.914062 L 21.46875 17.308594 L 21.667969 17.300781 C 21.703125 17.300781 21.738281 17.296875 21.773438 17.289062 C 21.808594 17.285156 21.84375 17.273438 21.871094 17.257812 C 21.898438 17.238281 21.921875 17.222656 21.941406 17.195312 C 21.964844 17.164062 21.96875 17.132812 21.96875 17.089844 Z M 21.96875 17.089844 " fill-opacity="1" fill-rule="nonzero"/><path fill="#212121" d="M 22.707031 18.238281 L 22.660156 16.558594 L 23.8125 16.523438 L 23.824219 16.863281 L 23.070312 16.886719 L 23.082031 17.207031 L 23.796875 17.1875 L 23.808594 17.511719 L 23.09375 17.527344 L 23.105469 17.875 L 23.902344 17.851562 L 23.914062 18.199219 Z M 22.707031 18.238281 " fill-opacity="1" fill-rule="nonzero"/><path fill="#000000" d="M 12.71875 15.683594 L 13.417969 10.664062 L 12.945312 10.699219 L 6.433594 10.769531 L 9.40625 19.878906 L 13.292969 19.953125 L 13.855469 19.957031 C 14.183594 19.488281 14.375 18.917969 14.375 18.304688 C 14.382812 17.195312 13.726562 16.179688 12.71875 15.683594 Z M 12.71875 15.683594 " fill-opacity="0.2" fill-rule="nonzero"/><g clip-path="url(#d5b7b4b00e)"><path fill="#25bf6a" d="M 13.078125 8.421875 C 12.972656 8.308594 12.828125 8.242188 12.671875 8.242188 C 12.617188 8.242188 12.566406 8.246094 12.519531 8.265625 C 12.492188 8.277344 12.460938 8.28125 12.425781 8.289062 C 11.933594 8.417969 11.417969 8.484375 10.902344 8.484375 C 9.589844 8.484375 8.292969 8.042969 7.246094 7.238281 C 7.136719 7.152344 6.992188 7.101562 6.851562 7.101562 C 6.707031 7.101562 6.570312 7.148438 6.457031 7.238281 C 5.414062 8.042969 4.113281 8.480469 2.804688 8.484375 C 2.289062 8.484375 1.777344 8.417969 1.285156 8.289062 C 1.253906 8.28125 1.226562 8.269531 1.191406 8.265625 C 1.140625 8.253906 1.09375 8.242188 1.039062 8.242188 C 0.882812 8.242188 0.738281 8.308594 0.632812 8.421875 C 0.53125 8.539062 0.484375 8.691406 0.507812 8.839844 L 1.480469 15.957031 C 1.558594 16.574219 1.75 17.160156 2.054688 17.703125 C 2.367188 18.25 2.78125 18.722656 3.285156 19.105469 L 6.300781 21.417969 C 6.457031 21.535156 6.648438 21.597656 6.847656 21.605469 L 6.859375 21.605469 C 7.054688 21.605469 7.246094 21.535156 7.398438 21.417969 L 10.414062 19.105469 C 10.917969 18.722656 11.332031 18.25 11.644531 17.703125 C 11.953125 17.160156 12.148438 16.574219 12.21875 15.957031 L 13.203125 8.839844 C 13.222656 8.691406 13.175781 8.539062 13.078125 8.421875 Z M 13.078125 8.421875 " fill-opacity="1" fill-rule="nonzero"/></g><path fill="#22ad60" d="M 3.867188 18.378906 C 3.058594 17.761719 2.53125 16.84375 2.414062 15.847656 L 2.414062 15.835938 L 1.515625 9.285156 C 1.941406 9.367188 2.367188 9.410156 2.804688 9.410156 C 4.25 9.410156 5.679688 8.953125 6.851562 8.105469 C 8.03125 8.953125 9.457031 9.410156 10.902344 9.410156 C 11.335938 9.410156 11.765625 9.371094 12.191406 9.285156 L 11.289062 15.84375 L 11.289062 15.847656 C 11.175781 16.84375 10.648438 17.765625 9.839844 18.378906 L 6.921875 20.609375 C 6.882812 20.644531 6.824219 20.644531 6.785156 20.609375 Z M 3.867188 18.378906 " fill-opacity="1" fill-rule="nonzero"/><path fill="#25bf6a" d="M 4.085938 18.101562 C 3.355469 17.546875 2.878906 16.707031 2.769531 15.808594 L 2.769531 15.792969 L 1.941406 9.710938 C 2.222656 9.746094 2.515625 9.761719 2.804688 9.761719 C 4.230469 9.761719 5.664062 9.328125 6.851562 8.539062 C 8.046875 9.328125 9.480469 9.761719 10.902344 9.761719 C 11.191406 9.761719 11.476562 9.746094 11.765625 9.710938 L 10.929688 15.804688 L 10.929688 15.808594 C 10.828125 16.710938 10.34375 17.546875 9.613281 18.101562 L 6.847656 20.21875 Z M 4.085938 18.101562 " fill-opacity="1" fill-rule="nonzero"/><path fill="#23b564" d="M 4.085938 18.101562 C 3.402344 17.578125 2.9375 16.808594 2.796875 15.96875 C 2.953125 15.972656 3.113281 15.980469 3.269531 15.980469 C 4.863281 15.980469 6.433594 15.554688 7.808594 14.753906 C 9.191406 13.945312 10.320312 12.792969 11.082031 11.410156 L 11.683594 10.320312 L 10.9375 15.804688 L 10.9375 15.808594 C 10.832031 16.710938 10.351562 17.546875 9.621094 18.101562 L 6.851562 20.21875 Z M 4.085938 18.101562 " fill-opacity="1" fill-rule="nonzero"/><path fill="#ffffff" d="M 8.34375 10.800781 C 7.957031 10.410156 7.425781 10.195312 6.871094 10.1875 C 6.3125 10.183594 5.785156 10.394531 5.386719 10.773438 C 4.984375 11.152344 4.765625 11.671875 4.757812 12.214844 L 4.742188 14.257812 L 5.351562 14.265625 L 5.367188 12.636719 L 5.375 12.222656 C 5.378906 11.421875 6.050781 10.78125 6.863281 10.785156 C 7.683594 10.789062 8.339844 11.449219 8.332031 12.242188 L 8.328125 12.660156 L 8.316406 13.691406 L 8.308594 14.289062 L 8.917969 14.292969 L 8.933594 12.25 C 8.945312 11.710938 8.730469 11.195312 8.34375 10.800781 Z M 8.34375 10.800781 " fill-opacity="1" fill-rule="nonzero"/><path fill="#ffd138" d="M 9.003906 13.402344 L 4.679688 13.363281 C 4.3125 13.355469 4.015625 13.644531 4.015625 13.996094 L 4.050781 17.222656 C 4.058594 17.527344 4.304688 17.773438 4.621094 17.773438 L 9.121094 17.8125 C 9.441406 17.8125 9.699219 17.5625 9.695312 17.25 L 9.660156 14.050781 C 9.660156 13.695312 9.371094 13.402344 9.003906 13.402344 Z M 7.183594 16.65625 L 6.445312 16.648438 C 6.378906 16.648438 6.324219 16.582031 6.34375 16.511719 L 6.605469 15.699219 C 6.433594 15.617188 6.332031 15.433594 6.355469 15.234375 C 6.378906 15.019531 6.558594 14.84375 6.777344 14.820312 C 7.066406 14.792969 7.3125 15.015625 7.304688 15.292969 C 7.304688 15.472656 7.195312 15.628906 7.042969 15.707031 L 7.289062 16.523438 C 7.304688 16.585938 7.253906 16.65625 7.183594 16.65625 Z M 7.183594 16.65625 " fill-opacity="1" fill-rule="nonzero"/><path fill="#23b363" d="M 13.929688 18.3125 C 13.929688 18.644531 13.863281 18.960938 13.734375 19.265625 C 13.605469 19.570312 13.421875 19.839844 13.183594 20.074219 C 12.945312 20.308594 12.667969 20.488281 12.359375 20.613281 C 12.046875 20.742188 11.722656 20.804688 11.382812 20.804688 C 11.046875 20.804688 10.722656 20.742188 10.410156 20.613281 C 10.097656 20.488281 9.820312 20.308594 9.582031 20.074219 C 9.34375 19.839844 9.160156 19.570312 9.03125 19.265625 C 8.902344 18.960938 8.835938 18.644531 8.835938 18.3125 C 8.835938 17.980469 8.902344 17.664062 9.03125 17.359375 C 9.160156 17.054688 9.34375 16.785156 9.582031 16.550781 C 9.820312 16.316406 10.097656 16.136719 10.410156 16.011719 C 10.722656 15.882812 11.046875 15.820312 11.382812 15.820312 C 11.722656 15.820312 12.046875 15.882812 12.359375 16.011719 C 12.667969 16.136719 12.945312 16.316406 13.183594 16.550781 C 13.421875 16.785156 13.605469 17.054688 13.734375 17.359375 C 13.863281 17.664062 13.929688 17.980469 13.929688 18.3125 Z M 13.929688 18.3125 " fill-opacity="1" fill-rule="nonzero"/><path fill="#ffffff" d="M 12.507812 17.398438 L 11.210938 18.667969 L 10.625 18.097656 L 10.152344 18.550781 L 11.210938 19.582031 L 12.972656 17.851562 Z M 12.507812 17.398438 " fill-opacity="1" fill-rule="nonzero"/><g fill="#000000" fill-opacity="1"><g transform="translate(6.563147, 5.998132)"><g><path d="M 0.1875 0 L 0.1875 -2.65625 L 1.5 -2.65625 C 1.707031 -2.65625 1.890625 -2.617188 2.046875 -2.546875 C 2.203125 -2.484375 2.320312 -2.382812 2.40625 -2.25 C 2.5 -2.125 2.546875 -1.957031 2.546875 -1.75 C 2.546875 -1.539062 2.5 -1.363281 2.40625 -1.21875 C 2.3125 -1.082031 2.179688 -0.984375 2.015625 -0.921875 C 1.859375 -0.859375 1.679688 -0.828125 1.484375 -0.828125 L 0.703125 -0.828125 L 0.703125 0 Z M 0.703125 -1.265625 L 1.484375 -1.265625 C 1.648438 -1.265625 1.78125 -1.300781 1.875 -1.375 C 1.976562 -1.445312 2.03125 -1.570312 2.03125 -1.75 C 2.03125 -1.863281 2.003906 -1.953125 1.953125 -2.015625 C 1.910156 -2.085938 1.847656 -2.132812 1.765625 -2.15625 C 1.679688 -2.1875 1.59375 -2.203125 1.5 -2.203125 L 0.703125 -2.203125 Z M 0.703125 -1.265625 "/></g></g></g><g fill="#000000" fill-opacity="1"><g transform="translate(9.261419, 5.998132)"><g><path d="M 0.375 -1.5625 L 0.09375 -1.765625 L 0.3125 -2.046875 L -0.015625 -2.140625 L 0.09375 -2.5 L 0.421875 -2.375 L 0.421875 -2.71875 L 0.78125 -2.71875 L 0.765625 -2.375 L 1.109375 -2.5 L 1.21875 -2.140625 L 0.875 -2.046875 L 1.109375 -1.765625 L 0.828125 -1.5625 L 0.59375 -1.859375 Z M 0.375 -1.5625 "/></g></g></g><g fill="#000000" fill-opacity="1"><g transform="translate(10.561288, 5.998132)"><g><path d="M 0.375 -1.5625 L 0.09375 -1.765625 L 0.3125 -2.046875 L -0.015625 -2.140625 L 0.09375 -2.5 L 0.421875 -2.375 L 0.421875 -2.71875 L 0.78125 -2.71875 L 0.765625 -2.375 L 1.109375 -2.5 L 1.21875 -2.140625 L 0.875 -2.046875 L 1.109375 -1.765625 L 0.828125 -1.5625 L 0.59375 -1.859375 Z M 0.375 -1.5625 "/></g></g></g><g fill="#000000" fill-opacity="1"><g transform="translate(11.861157, 5.998132)"><g><path d="M 0.953125 0.03125 C 0.796875 0.03125 0.648438 0.015625 0.515625 -0.015625 C 0.378906 -0.0546875 0.269531 -0.125 0.1875 -0.21875 C 0.101562 -0.3125 0.0546875 -0.4375 0.046875 -0.59375 L 0.515625 -0.578125 C 0.515625 -0.523438 0.535156 -0.476562 0.578125 -0.4375 C 0.628906 -0.40625 0.6875 -0.382812 0.75 -0.375 C 0.820312 -0.363281 0.894531 -0.359375 0.96875 -0.359375 C 1.101562 -0.359375 1.207031 -0.375 1.28125 -0.40625 C 1.351562 -0.445312 1.390625 -0.492188 1.390625 -0.546875 C 1.390625 -0.585938 1.359375 -0.625 1.296875 -0.65625 C 1.234375 -0.6875 1.125 -0.703125 0.96875 -0.703125 C 0.875 -0.710938 0.773438 -0.722656 0.671875 -0.734375 C 0.566406 -0.753906 0.46875 -0.78125 0.375 -0.8125 C 0.28125 -0.851562 0.207031 -0.90625 0.15625 -0.96875 C 0.101562 -1.039062 0.078125 -1.132812 0.078125 -1.25 C 0.078125 -1.363281 0.101562 -1.457031 0.15625 -1.53125 C 0.21875 -1.613281 0.289062 -1.675781 0.375 -1.71875 C 0.46875 -1.757812 0.5625 -1.789062 0.65625 -1.8125 C 0.757812 -1.832031 0.859375 -1.84375 0.953125 -1.84375 C 1.054688 -1.84375 1.15625 -1.832031 1.25 -1.8125 C 1.351562 -1.800781 1.445312 -1.769531 1.53125 -1.71875 C 1.625 -1.675781 1.695312 -1.613281 1.75 -1.53125 C 1.8125 -1.457031 1.847656 -1.359375 1.859375 -1.234375 L 1.40625 -1.21875 C 1.382812 -1.289062 1.347656 -1.34375 1.296875 -1.375 C 1.242188 -1.40625 1.179688 -1.425781 1.109375 -1.4375 C 1.046875 -1.445312 0.992188 -1.453125 0.953125 -1.453125 C 0.847656 -1.453125 0.753906 -1.4375 0.671875 -1.40625 C 0.597656 -1.375 0.5625 -1.328125 0.5625 -1.265625 C 0.5625 -1.222656 0.582031 -1.191406 0.625 -1.171875 C 0.664062 -1.148438 0.722656 -1.132812 0.796875 -1.125 C 0.867188 -1.113281 0.945312 -1.101562 1.03125 -1.09375 C 1.132812 -1.09375 1.238281 -1.082031 1.34375 -1.0625 C 1.445312 -1.050781 1.539062 -1.023438 1.625 -0.984375 C 1.71875 -0.941406 1.785156 -0.878906 1.828125 -0.796875 C 1.878906 -0.722656 1.90625 -0.625 1.90625 -0.5 C 1.882812 -0.375 1.828125 -0.269531 1.734375 -0.1875 C 1.640625 -0.113281 1.519531 -0.0546875 1.375 -0.015625 C 1.238281 0.015625 1.097656 0.03125 0.953125 0.03125 Z M 0.953125 0.03125 "/></g></g></g><g fill="#000000" fill-opacity="1"><g transform="translate(13.907596, 5.998132)"><g><path d="M 0.78125 0 L -0.0625 -1.78125 L -0.0625 -1.8125 L 0.46875 -1.8125 L 0.921875 -0.796875 L 1.015625 -0.46875 L 1.09375 -0.796875 L 1.46875 -1.5625 L 1.828125 -1.5625 L 2.1875 -0.796875 L 2.28125 -0.46875 L 2.375 -0.796875 L 2.828125 -1.8125 L 3.359375 -1.8125 L 3.359375 -1.78125 L 2.515625 0 L 2.09375 0 L 1.8125 -0.546875 L 1.640625 -0.96875 L 1.484375 -0.546875 L 1.203125 0 Z M 0.78125 0 "/></g></g></g><g fill="#000000" fill-opacity="1"><g transform="translate(17.276645, 5.998132)"><g><path d="M 1.0625 0.03125 C 0.875 0.03125 0.703125 -0.00390625 0.546875 -0.078125 C 0.398438 -0.160156 0.28125 -0.269531 0.1875 -0.40625 C 0.101562 -0.550781 0.0625 -0.71875 0.0625 -0.90625 C 0.0625 -1.09375 0.101562 -1.253906 0.1875 -1.390625 C 0.28125 -1.535156 0.398438 -1.644531 0.546875 -1.71875 C 0.703125 -1.800781 0.875 -1.84375 1.0625 -1.84375 C 1.25 -1.84375 1.414062 -1.800781 1.5625 -1.71875 C 1.707031 -1.644531 1.820312 -1.535156 1.90625 -1.390625 C 2 -1.253906 2.046875 -1.09375 2.046875 -0.90625 C 2.046875 -0.71875 2 -0.550781 1.90625 -0.40625 C 1.820312 -0.269531 1.707031 -0.160156 1.5625 -0.078125 C 1.414062 -0.00390625 1.25 0.03125 1.0625 0.03125 Z M 1.0625 -0.390625 C 1.195312 -0.390625 1.3125 -0.4375 1.40625 -0.53125 C 1.5 -0.632812 1.546875 -0.757812 1.546875 -0.90625 C 1.546875 -1.050781 1.5 -1.171875 1.40625 -1.265625 C 1.3125 -1.367188 1.195312 -1.421875 1.0625 -1.421875 C 0.914062 -1.421875 0.796875 -1.367188 0.703125 -1.265625 C 0.609375 -1.171875 0.5625 -1.050781 0.5625 -0.90625 C 0.5625 -0.757812 0.609375 -0.632812 0.703125 -0.53125 C 0.796875 -0.4375 0.914062 -0.390625 1.0625 -0.390625 Z M 1.0625 -0.390625 "/></g></g></g><g fill="#000000" fill-opacity="1"><g transform="translate(19.486043, 5.998132)"><g><path d="M 0.15625 0 L 0.15625 -1.8125 L 0.5625 -1.8125 L 0.59375 -1.59375 C 0.664062 -1.695312 0.742188 -1.765625 0.828125 -1.796875 C 0.921875 -1.828125 1.003906 -1.84375 1.078125 -1.84375 C 1.160156 -1.84375 1.253906 -1.828125 1.359375 -1.796875 C 1.472656 -1.765625 1.5625 -1.703125 1.625 -1.609375 L 1.421875 -1.28125 C 1.328125 -1.363281 1.222656 -1.40625 1.109375 -1.40625 C 0.984375 -1.40625 0.875 -1.363281 0.78125 -1.28125 C 0.695312 -1.195312 0.648438 -1.085938 0.640625 -0.953125 L 0.640625 0 Z M 0.15625 0 "/></g></g></g><g fill="#000000" fill-opacity="1"><g transform="translate(21.130775, 5.998132)"><g><path d="M 0.953125 0.03125 C 0.753906 0.0078125 0.585938 -0.0390625 0.453125 -0.125 C 0.316406 -0.21875 0.21875 -0.332031 0.15625 -0.46875 C 0.09375 -0.601562 0.0625 -0.75 0.0625 -0.90625 C 0.0625 -1.082031 0.0976562 -1.238281 0.171875 -1.375 C 0.253906 -1.519531 0.367188 -1.632812 0.515625 -1.71875 C 0.660156 -1.800781 0.832031 -1.84375 1.03125 -1.84375 C 1.125 -1.84375 1.21875 -1.816406 1.3125 -1.765625 C 1.414062 -1.722656 1.492188 -1.664062 1.546875 -1.59375 L 1.546875 -2.65625 L 2.03125 -2.65625 L 2.03125 0 L 1.625 0 L 1.578125 -0.25 C 1.503906 -0.132812 1.410156 -0.0546875 1.296875 -0.015625 C 1.179688 0.0234375 1.066406 0.0390625 0.953125 0.03125 Z M 1.0625 -0.40625 C 1.21875 -0.40625 1.335938 -0.453125 1.421875 -0.546875 C 1.515625 -0.640625 1.5625 -0.757812 1.5625 -0.90625 C 1.5625 -1.039062 1.515625 -1.15625 1.421875 -1.25 C 1.335938 -1.351562 1.21875 -1.40625 1.0625 -1.40625 C 0.945312 -1.40625 0.847656 -1.378906 0.765625 -1.328125 C 0.691406 -1.285156 0.632812 -1.222656 0.59375 -1.140625 C 0.5625 -1.066406 0.546875 -0.988281 0.546875 -0.90625 C 0.546875 -0.820312 0.5625 -0.738281 0.59375 -0.65625 C 0.632812 -0.582031 0.691406 -0.519531 0.765625 -0.46875 C 0.847656 -0.425781 0.945312 -0.40625 1.0625 -0.40625 Z M 1.0625 -0.40625 "/></g></g></g><g fill="#000000" fill-opacity="1"><g transform="translate(5.591055, 27.076455)"><g><path d="M 1.46875 0.046875 C 1.1875 0.046875 0.9375 -0.0078125 0.71875 -0.125 C 0.507812 -0.238281 0.34375 -0.394531 0.21875 -0.59375 C 0.101562 -0.800781 0.046875 -1.046875 0.046875 -1.328125 C 0.046875 -1.523438 0.0820312 -1.707031 0.15625 -1.875 C 0.226562 -2.050781 0.328125 -2.203125 0.453125 -2.328125 C 0.578125 -2.453125 0.722656 -2.546875 0.890625 -2.609375 C 1.066406 -2.679688 1.257812 -2.71875 1.46875 -2.71875 C 1.625 -2.71875 1.78125 -2.691406 1.9375 -2.640625 C 2.101562 -2.585938 2.25 -2.503906 2.375 -2.390625 C 2.507812 -2.285156 2.613281 -2.140625 2.6875 -1.953125 L 2.25 -1.796875 C 2.1875 -1.921875 2.109375 -2.015625 2.015625 -2.078125 C 1.929688 -2.140625 1.84375 -2.179688 1.75 -2.203125 C 1.65625 -2.234375 1.5625 -2.25 1.46875 -2.25 C 1.289062 -2.25 1.132812 -2.207031 1 -2.125 C 0.875 -2.050781 0.769531 -1.941406 0.6875 -1.796875 C 0.613281 -1.660156 0.578125 -1.503906 0.578125 -1.328125 C 0.578125 -1.148438 0.613281 -0.988281 0.6875 -0.84375 C 0.769531 -0.707031 0.875 -0.597656 1 -0.515625 C 1.132812 -0.441406 1.289062 -0.40625 1.46875 -0.40625 C 1.5625 -0.40625 1.660156 -0.414062 1.765625 -0.4375 C 1.867188 -0.457031 1.960938 -0.492188 2.046875 -0.546875 C 2.128906 -0.597656 2.195312 -0.671875 2.25 -0.765625 L 2.25 -1.09375 L 1.296875 -1.09375 L 1.296875 -1.515625 L 2.71875 -1.515625 L 2.71875 -0.671875 C 2.644531 -0.492188 2.539062 -0.347656 2.40625 -0.234375 C 2.269531 -0.128906 2.117188 -0.0546875 1.953125 -0.015625 C 1.796875 0.0234375 1.632812 0.046875 1.46875 0.046875 Z M 1.46875 0.046875 "/></g></g></g><g fill="#000000" fill-opacity="1"><g transform="translate(8.554604, 27.076455)"><g><path d="M 1 0.03125 C 0.8125 0.03125 0.644531 -0.00390625 0.5 -0.078125 C 0.363281 -0.160156 0.253906 -0.269531 0.171875 -0.40625 C 0.0859375 -0.550781 0.046875 -0.71875 0.046875 -0.90625 C 0.046875 -1.09375 0.0859375 -1.253906 0.171875 -1.390625 C 0.253906 -1.535156 0.367188 -1.644531 0.515625 -1.71875 C 0.660156 -1.800781 0.828125 -1.84375 1.015625 -1.84375 C 1.210938 -1.84375 1.378906 -1.800781 1.515625 -1.71875 C 1.660156 -1.632812 1.769531 -1.515625 1.84375 -1.359375 C 1.925781 -1.210938 1.96875 -1.039062 1.96875 -0.84375 C 1.96875 -0.820312 1.96875 -0.800781 1.96875 -0.78125 C 1.96875 -0.757812 1.960938 -0.738281 1.953125 -0.71875 L 0.546875 -0.71875 C 0.554688 -0.632812 0.585938 -0.566406 0.640625 -0.515625 C 0.703125 -0.460938 0.765625 -0.425781 0.828125 -0.40625 C 0.898438 -0.394531 0.972656 -0.390625 1.046875 -0.390625 C 1.128906 -0.390625 1.207031 -0.398438 1.28125 -0.421875 C 1.363281 -0.441406 1.425781 -0.488281 1.46875 -0.5625 L 1.859375 -0.421875 C 1.796875 -0.304688 1.71875 -0.210938 1.625 -0.140625 C 1.53125 -0.078125 1.429688 -0.03125 1.328125 0 C 1.222656 0.0195312 1.113281 0.03125 1 0.03125 Z M 0.546875 -1.09375 L 1.484375 -1.09375 C 1.460938 -1.207031 1.40625 -1.289062 1.3125 -1.34375 C 1.21875 -1.394531 1.117188 -1.421875 1.015625 -1.421875 C 0.910156 -1.421875 0.8125 -1.390625 0.71875 -1.328125 C 0.625 -1.273438 0.566406 -1.195312 0.546875 -1.09375 Z M 0.546875 -1.09375 "/></g></g></g><g fill="#000000" fill-opacity="1"><g transform="translate(10.703366, 27.076455)"><g><path d="M 0.15625 0 L 0.15625 -1.8125 L 0.578125 -1.8125 L 0.625 -1.59375 C 0.664062 -1.675781 0.734375 -1.738281 0.828125 -1.78125 C 0.921875 -1.820312 1.015625 -1.84375 1.109375 -1.84375 C 1.222656 -1.84375 1.332031 -1.828125 1.4375 -1.796875 C 1.550781 -1.765625 1.648438 -1.710938 1.734375 -1.640625 C 1.816406 -1.566406 1.882812 -1.472656 1.9375 -1.359375 C 1.988281 -1.242188 2.015625 -1.097656 2.015625 -0.921875 L 2.015625 0 L 1.515625 0 L 1.515625 -0.9375 C 1.523438 -1.050781 1.507812 -1.144531 1.46875 -1.21875 C 1.425781 -1.289062 1.375 -1.34375 1.3125 -1.375 C 1.25 -1.40625 1.179688 -1.421875 1.109375 -1.421875 C 1.035156 -1.421875 0.960938 -1.40625 0.890625 -1.375 C 0.816406 -1.34375 0.753906 -1.289062 0.703125 -1.21875 C 0.660156 -1.144531 0.640625 -1.050781 0.640625 -0.9375 L 0.640625 0 Z M 0.15625 0 "/></g></g></g><g fill="#000000" fill-opacity="1"><g transform="translate(12.9734, 27.076455)"><g><path d="M 1 0.03125 C 0.8125 0.03125 0.644531 -0.00390625 0.5 -0.078125 C 0.363281 -0.160156 0.253906 -0.269531 0.171875 -0.40625 C 0.0859375 -0.550781 0.046875 -0.71875 0.046875 -0.90625 C 0.046875 -1.09375 0.0859375 -1.253906 0.171875 -1.390625 C 0.253906 -1.535156 0.367188 -1.644531 0.515625 -1.71875 C 0.660156 -1.800781 0.828125 -1.84375 1.015625 -1.84375 C 1.210938 -1.84375 1.378906 -1.800781 1.515625 -1.71875 C 1.660156 -1.632812 1.769531 -1.515625 1.84375 -1.359375 C 1.925781 -1.210938 1.96875 -1.039062 1.96875 -0.84375 C 1.96875 -0.820312 1.96875 -0.800781 1.96875 -0.78125 C 1.96875 -0.757812 1.960938 -0.738281 1.953125 -0.71875 L 0.546875 -0.71875 C 0.554688 -0.632812 0.585938 -0.566406 0.640625 -0.515625 C 0.703125 -0.460938 0.765625 -0.425781 0.828125 -0.40625 C 0.898438 -0.394531 0.972656 -0.390625 1.046875 -0.390625 C 1.128906 -0.390625 1.207031 -0.398438 1.28125 -0.421875 C 1.363281 -0.441406 1.425781 -0.488281 1.46875 -0.5625 L 1.859375 -0.421875 C 1.796875 -0.304688 1.71875 -0.210938 1.625 -0.140625 C 1.53125 -0.078125 1.429688 -0.03125 1.328125 0 C 1.222656 0.0195312 1.113281 0.03125 1 0.03125 Z M 0.546875 -1.09375 L 1.484375 -1.09375 C 1.460938 -1.207031 1.40625 -1.289062 1.3125 -1.34375 C 1.21875 -1.394531 1.117188 -1.421875 1.015625 -1.421875 C 0.910156 -1.421875 0.8125 -1.390625 0.71875 -1.328125 C 0.625 -1.273438 0.566406 -1.195312 0.546875 -1.09375 Z M 0.546875 -1.09375 "/></g></g></g><g fill="#000000" fill-opacity="1"><g transform="translate(15.122162, 27.076455)"><g><path d="M 0.15625 0 L 0.15625 -1.8125 L 0.5625 -1.8125 L 0.59375 -1.59375 C 0.664062 -1.695312 0.742188 -1.765625 0.828125 -1.796875 C 0.921875 -1.828125 1.003906 -1.84375 1.078125 -1.84375 C 1.160156 -1.84375 1.253906 -1.828125 1.359375 -1.796875 C 1.472656 -1.765625 1.5625 -1.703125 1.625 -1.609375 L 1.421875 -1.28125 C 1.328125 -1.363281 1.222656 -1.40625 1.109375 -1.40625 C 0.984375 -1.40625 0.875 -1.363281 0.78125 -1.28125 C 0.695312 -1.195312 0.648438 -1.085938 0.640625 -0.953125 L 0.640625 0 Z M 0.15625 0 "/></g></g></g><g fill="#000000" fill-opacity="1"><g transform="translate(16.766895, 27.076455)"><g><path d="M 0.8125 0.03125 C 0.6875 0.03125 0.5625 0.0078125 0.4375 -0.03125 C 0.320312 -0.0703125 0.226562 -0.132812 0.15625 -0.21875 C 0.0820312 -0.300781 0.046875 -0.414062 0.046875 -0.5625 C 0.046875 -0.695312 0.0820312 -0.804688 0.15625 -0.890625 C 0.226562 -0.972656 0.328125 -1.03125 0.453125 -1.0625 C 0.578125 -1.09375 0.703125 -1.109375 0.828125 -1.109375 L 1.40625 -1.109375 C 1.375 -1.222656 1.3125 -1.300781 1.21875 -1.34375 C 1.125 -1.394531 1.023438 -1.421875 0.921875 -1.421875 C 0.835938 -1.421875 0.75 -1.398438 0.65625 -1.359375 C 0.570312 -1.328125 0.503906 -1.28125 0.453125 -1.21875 L 0.140625 -1.484375 C 0.234375 -1.628906 0.351562 -1.726562 0.5 -1.78125 C 0.65625 -1.84375 0.804688 -1.875 0.953125 -1.875 C 1.078125 -1.875 1.191406 -1.851562 1.296875 -1.8125 C 1.410156 -1.78125 1.515625 -1.726562 1.609375 -1.65625 C 1.703125 -1.59375 1.773438 -1.507812 1.828125 -1.40625 C 1.878906 -1.3125 1.90625 -1.203125 1.90625 -1.078125 L 1.90625 -0.390625 L 1.921875 0 L 1.484375 0 L 1.4375 -0.25 C 1.375 -0.15625 1.28125 -0.0820312 1.15625 -0.03125 C 1.039062 0.0078125 0.925781 0.03125 0.8125 0.03125 Z M 0.859375 -0.375 C 0.929688 -0.375 1.007812 -0.382812 1.09375 -0.40625 C 1.175781 -0.425781 1.242188 -0.460938 1.296875 -0.515625 C 1.359375 -0.578125 1.398438 -0.660156 1.421875 -0.765625 L 0.8125 -0.765625 C 0.75 -0.765625 0.6875 -0.742188 0.625 -0.703125 C 0.570312 -0.671875 0.546875 -0.625 0.546875 -0.5625 C 0.546875 -0.519531 0.5625 -0.484375 0.59375 -0.453125 C 0.625 -0.421875 0.664062 -0.398438 0.71875 -0.390625 C 0.769531 -0.378906 0.816406 -0.375 0.859375 -0.375 Z M 0.859375 -0.375 "/></g></g></g><g fill="#000000" fill-opacity="1"><g transform="translate(18.930817, 27.076455)"><g><path d="M 1.109375 0.03125 C 0.859375 0.03125 0.664062 -0.0390625 0.53125 -0.1875 C 0.394531 -0.332031 0.328125 -0.523438 0.328125 -0.765625 L 0.328125 -1.4375 L 0 -1.4375 L 0 -1.8125 L 0.328125 -1.8125 L 0.328125 -2.65625 L 0.8125 -2.65625 L 0.8125 -1.8125 L 1.453125 -1.8125 L 1.453125 -1.4375 L 0.8125 -1.4375 L 0.8125 -0.765625 C 0.8125 -0.648438 0.84375 -0.554688 0.90625 -0.484375 C 0.976562 -0.410156 1.070312 -0.375 1.1875 -0.375 C 1.21875 -0.375 1.253906 -0.378906 1.296875 -0.390625 C 1.335938 -0.398438 1.378906 -0.414062 1.421875 -0.4375 L 1.5625 -0.09375 C 1.46875 -0.0390625 1.382812 -0.0078125 1.3125 0 C 1.25 0.0195312 1.179688 0.03125 1.109375 0.03125 Z M 1.109375 0.03125 "/></g></g></g><g fill="#000000" fill-opacity="1"><g transform="translate(20.549023, 27.076455)"><g><path d="M 1.0625 0.03125 C 0.875 0.03125 0.703125 -0.00390625 0.546875 -0.078125 C 0.398438 -0.160156 0.28125 -0.269531 0.1875 -0.40625 C 0.101562 -0.550781 0.0625 -0.71875 0.0625 -0.90625 C 0.0625 -1.09375 0.101562 -1.253906 0.1875 -1.390625 C 0.28125 -1.535156 0.398438 -1.644531 0.546875 -1.71875 C 0.703125 -1.800781 0.875 -1.84375 1.0625 -1.84375 C 1.25 -1.84375 1.414062 -1.800781 1.5625 -1.71875 C 1.707031 -1.644531 1.820312 -1.535156 1.90625 -1.390625 C 2 -1.253906 2.046875 -1.09375 2.046875 -0.90625 C 2.046875 -0.71875 2 -0.550781 1.90625 -0.40625 C 1.820312 -0.269531 1.707031 -0.160156 1.5625 -0.078125 C 1.414062 -0.00390625 1.25 0.03125 1.0625 0.03125 Z M 1.0625 -0.390625 C 1.195312 -0.390625 1.3125 -0.4375 1.40625 -0.53125 C 1.5 -0.632812 1.546875 -0.757812 1.546875 -0.90625 C 1.546875 -1.050781 1.5 -1.171875 1.40625 -1.265625 C 1.3125 -1.367188 1.195312 -1.421875 1.0625 -1.421875 C 0.914062 -1.421875 0.796875 -1.367188 0.703125 -1.265625 C 0.609375 -1.171875 0.5625 -1.050781 0.5625 -0.90625 C 0.5625 -0.757812 0.609375 -0.632812 0.703125 -0.53125 C 0.796875 -0.4375 0.914062 -0.390625 1.0625 -0.390625 Z M 1.0625 -0.390625 "/></g></g></g><g fill="#000000" fill-opacity="1"><g transform="translate(22.75842, 27.076455)"><g><path d="M 0.15625 0 L 0.15625 -1.8125 L 0.5625 -1.8125 L 0.59375 -1.59375 C 0.664062 -1.695312 0.742188 -1.765625 0.828125 -1.796875 C 0.921875 -1.828125 1.003906 -1.84375 1.078125 -1.84375 C 1.160156 -1.84375 1.253906 -1.828125 1.359375 -1.796875 C 1.472656 -1.765625 1.5625 -1.703125 1.625 -1.609375 L 1.421875 -1.28125 C 1.328125 -1.363281 1.222656 -1.40625 1.109375 -1.40625 C 0.984375 -1.40625 0.875 -1.363281 0.78125 -1.28125 C 0.695312 -1.195312 0.648438 -1.085938 0.640625 -0.953125 L 0.640625 0 Z M 0.15625 0 "/></g></g></g></svg>